Coordinates
version=1
nRows=4
nColumns=63
inDegrees=yes

Units are S.I. units (second, meters, Newtons, ...)
If the header above contains a line with 'inDegrees', this indicates whether rotational values are in degrees (yes) or radians (no).

endheader
time	pelvis_tilt	pelvis_list	pelvis_rotation	pelvis_tx	pelvis_ty	pelvis_tz	hip_flexion_r	hip_adduction_r	hip_rotation_r	knee_angle_r	knee_angle_r_beta	ankle_angle_r	subtalar_angle_r	mtp_angle_r	hip_flexion_l	hip_adduction_l	hip_rotation_l	knee_angle_l	knee_angle_l_beta	ankle_angle_l	subtalar_angle_l	mtp_angle_l	L5_S1_Flex_Ext	L5_S1_Lat_Bending	L5_S1_axial_rotation	L4_L5_Flex_Ext	L4_L5_Lat_Bending	L4_L5_axial_rotation	L3_L4_Flex_Ext	L3_L4_Lat_Bending	L3_L4_axial_rotation	L2_L3_Flex_Ext	L2_L3_Lat_Bending	L2_L3_axial_rotation	L1_L2_Flex_Ext	L1_L2_Lat_Bending	L1_L2_axial_rotation	L1_T12_Flex_Ext	L1_T12_Lat_Bending	L1_T12_axial_rotation	Abs_r3	Abs_r2	Abs_r1	Abs_t1	Abs_t2	neck_flexion	neck_bending	neck_rotation	arm_flex_r	arm_add_r	arm_rot_r	elbow_flex_r	pro_sup_r	wrist_flex_r	wrist_dev_r	arm_flex_l	arm_add_l	arm_rot_l	elbow_flex_l	pro_sup_l	wrist_flex_l	wrist_dev_l
      0.00000000	      2.21762799	     -2.98143191	     99.78416310	      0.26314734	      0.97509577	      0.40515746	     -2.06478355	      2.54157418	     -1.67545257	      1.17097487	      0.02043737	     27.11006751	     -8.92492708	      0.00000000	      3.03998508	     -3.31281058	     22.38802895	      2.76918461	      0.04833139	     30.15474487	     -6.79895486	      0.00000000	      0.18404578	      0.40006420	     -2.63224786	      0.34179142	      0.53208538	     -2.79676335	      0.30236881	      0.97271609	     -2.79676335	      0.21034592	      0.97271609	     -2.30321688	      0.17090491	      0.81581091	     -2.13870139	      0.10516376	      0.61969944	     -1.97418590	      1.31462061	      4.52560621	    -14.63977293	      0.00000000	      0.00000000	     23.36785814	      3.67628429	     12.63415414	     32.40903114	     -9.63020227	    102.71954236	     60.25111357	     89.18636522	     13.19954862	      8.34864359	     22.87376063	    -18.07314432	     76.33743817	     61.44428687	     88.23850996	    -10.48946665	     -7.22367386
      0.01694915	      2.55209849	     -2.89880539	     99.60096169	      0.26329088	      0.97493425	      0.40390280	     -2.13483383	      2.85310565	      2.03983382	      0.81658457	      0.01425209	     25.92341845	    -13.73888314	      0.00000000	      2.83009645	     -3.70891650	     23.60456437	      2.58674570	      0.04514723	     30.25671418	     -8.72777468	      0.00000000	      0.21593833	      0.44251346	     -2.66168239	      0.40101908	      0.58854290	     -2.82803754	      0.35476509	      1.07592722	     -2.82803754	      0.24679592	      1.07592722	     -2.32897209	      0.20052034	      0.90237344	     -2.16261694	      0.12338716	      0.68545335	     -1.99626179	      1.54242592	      5.00580074	    -14.80347896	      0.00000000	      0.00000000	     23.59256546	      2.62580100	     12.80277570	     31.92882766	     -9.07784603	    103.35377063	     59.32408035	     89.12870431	     13.17384651	      8.06660807	     21.88596443	    -17.73981817	     75.40642887	     60.49760862	     88.41000608	    -11.03827012	     -8.83322959
      0.03389831	      2.90423560	     -2.83220234	     99.62597283	      0.26322474	      0.97478447	      0.40314942	     -2.09017981	      3.14448025	      2.39604195	      0.72455318	      0.01264584	     26.16089703	    -13.81286573	      0.00000000	      2.83221196	     -4.08903320	     23.55112235	      2.71896206	      0.04745484	     30.75839349	     -8.65667821	      0.00000000	      0.22535796	      0.48036288	     -2.63705728	      0.41851226	      0.63888262	     -2.80187336	      0.37024059	      1.16795429	     -2.80187336	      0.25756161	      1.16795429	     -2.30742512	      0.20926740	      0.97955597	     -2.14260904	      0.12876954	      0.74408209	     -1.97779296	      1.60970934	      5.43396092	    -14.66652146	      0.00000000	      0.00000000	     24.20388554	      1.54264305	     12.19684240	     31.13774334	     -9.08894744	    102.95750372	     58.73018402	     89.05305840	     12.75932523	      7.51786437	     21.14843044	    -17.33418208	     74.31597639	     59.95435686	     88.43573944	    -10.86708852	     -9.22643470
      0.05084746	      3.18151890	     -2.77832850	     99.76612773	      0.26314182	      0.97471374	      0.40279762	     -2.04820942	      3.37866755	      3.07119815	      0.65264512	      0.01139081	     26.35890456	    -14.46913966	      0.00000000	      3.17312402	     -4.39358274	     19.70580632	      3.47692689	      0.06068382	     32.46993339	     -3.32799565	      0.00000000	      0.22488254	      0.50462938	     -2.59161343	      0.41762936	      0.67115708	     -2.75358927	      0.36945952	      1.22695588	     -2.75358927	      0.25701825	      1.22695588	     -2.26766175	      0.20882592	      1.02904024	     -2.10568591	      0.12849788	      0.78167092	     -1.94371007	      1.60631348	      5.70846852	    -14.41377640	      0.00000000	      0.00000000	     24.66499550	      0.64404859	     11.30396512	     30.36555072	     -9.15528497	    102.44351996	     58.04657006	     88.87884118	     12.32606132	      6.31063711	     20.60373900	    -16.97030844	     73.11782679	     59.60366181	     88.45361568	     -9.67852306	     -9.08326324
